<?xml version="1.0" standalone="no"?>
<!DOCTYPE svg PUBLIC "-//W3C//DTD SVG 20010904//EN"
 "http://www.w3.org/TR/2001/REC-SVG-20010904/DTD/svg10.dtd">
<svg version="1.0" xmlns="http://www.w3.org/2000/svg"
 width="1001.000000pt" height="728.000000pt" viewBox="0 0 1001.000000 728.000000"
 preserveAspectRatio="xMidYMid meet">
<metadata>
Created by potrace 1.11, written by Peter Selinger 2001-2013
</metadata>
<g transform="translate(0.000000,728.000000) scale(0.100000,-0.100000)"
fill="#000000" stroke="none">
<path d="M4803 7080 c52 -61 93 -151 107 -234 26 -149 -36 -341 -190 -581 -28
-44 -58 -104 -67 -134 -39 -134 29 -276 182 -381 l50 -34 -37 51 c-56 75 -78
130 -78 194 0 76 21 132 137 359 104 204 123 261 123 365 0 148 -97 321 -234
418 -30 21 -30 20 7 -23z"/>
<path d="M5186 6630 c21 -44 30 -147 15 -191 -6 -19 -45 -79 -86 -134 -133
-178 -166 -266 -147 -388 11 -67 43 -161 66 -192 13 -18 13 -15 6 25 -14 71
-11 132 9 175 10 22 61 97 113 166 112 148 133 195 133 299 0 65 -5 85 -32
140 -18 36 -46 81 -63 100 l-31 35 17 -35z"/>
<path d="M6331 6563 c-5 -10 -38 -91 -74 -180 l-65 -161 51 -21 c66 -28 108
-27 134 2 29 33 46 82 41 122 -3 28 0 39 15 46 23 13 47 68 47 107 0 35 -20
54 -83 81 -58 25 -54 25 -66 4z"/>
<path d="M3597 6518 c-15 -12 -13 -20 18 -86 l34 -72 -29 -15 c-16 -8 -31 -15
-33 -15 -2 0 -19 33 -37 73 -18 39 -34 73 -36 75 -2 3 -41 -15 -51 -23 -2 -1
29 -71 68 -156 39 -85 75 -164 80 -176 7 -20 11 -21 34 -11 14 6 25 14 25 18
0 4 -14 38 -31 76 -29 64 -30 69 -13 81 35 25 49 15 81 -57 17 -38 35 -70 40
-70 5 0 18 6 28 14 18 13 15 22 -60 185 -43 94 -84 171 -90 171 -6 0 -19 -6
-28 -12z"/>
<path d="M6742 6190 c-51 -87 -94 -163 -94 -167 -1 -8 120 -82 134 -83 4 0 12
9 18 20 9 18 5 23 -34 47 l-45 27 26 46 c14 25 27 47 29 49 2 2 20 -4 40 -15
35 -19 36 -19 50 1 13 18 13 21 -3 32 -59 40 -57 35 -27 85 l27 45 45 -25 c43
-24 45 -24 58 -7 7 10 11 21 9 25 -6 9 -124 80 -133 80 -4 0 -49 -72 -100
-160z"/>
<path d="M3076 6235 c-58 -31 -71 -76 -36 -132 23 -38 56 -57 130 -72 62 -13
90 -34 90 -66 0 -33 -29 -40 -56 -14 -18 17 -26 19 -43 10 -27 -15 -26 -19 6
-53 35 -37 80 -37 122 -2 36 30 40 67 15 115 -17 34 -73 63 -140 74 -50 8 -86
38 -82 68 4 27 38 35 54 12 10 -13 16 -14 34 -5 13 7 19 17 16 27 -3 8 -6 16
-6 19 0 5 -57 34 -67 34 -4 0 -21 -7 -37 -15z"/>
<path d="M7165 5899 c-139 -125 -145 -132 -129 -150 16 -18 17 -17 48 6 l31
23 29 -23 28 -23 -18 -32 c-19 -31 -19 -32 0 -46 11 -8 23 -14 27 -14 6 0 184
304 191 326 2 6 -11 23 -29 38 l-32 27 -146 -132z"/>
<path d="M2641 5902 l-61 -57 116 -130 c63 -71 121 -136 129 -144 11 -12 23
-6 73 39 52 46 59 55 49 71 -16 26 -26 24 -65 -13 l-34 -33 -40 45 -40 45 33
27 c32 27 32 28 14 48 l-18 20 -27 -25 c-14 -14 -30 -25 -36 -25 -5 0 -24 18
-41 39 l-33 39 39 35 c36 33 37 35 21 55 -17 20 -17 20 -79 -36z"/>
<path d="M7555 5579 c-169 -154 -161 -145 -145 -163 7 -9 16 -16 21 -16 5 0
50 38 101 84 51 47 94 83 96 82 1 -2 -29 -52 -68 -112 -38 -60 -70 -114 -70
-120 0 -6 8 -18 18 -27 17 -16 26 -9 158 110 76 69 140 129 141 132 1 3 -4 14
-12 25 -13 18 -18 15 -92 -52 -43 -39 -79 -69 -81 -67 -2 1 22 41 52 89 31 47
56 90 56 94 0 9 -43 52 -51 51 -2 0 -58 -50 -124 -110z"/>
<path d="M2258 5509 c-27 -29 -47 -55 -46 -60 2 -4 68 -62 147 -128 137 -114
146 -120 163 -104 10 9 18 19 18 23 0 4 -27 30 -60 57 -56 48 -58 52 -41 67
25 23 32 21 90 -25 l53 -42 20 21 21 21 -33 28 c-53 45 -104 73 -122 67 -14
-4 -18 0 -18 18 0 38 -82 108 -126 108 -10 0 -40 -23 -66 -51z"/>
<path d="M7946 5200 c-28 -25 -38 -44 -51 -103 -9 -40 -24 -80 -32 -89 -20
-22 -46 -23 -63 -3 -11 13 -9 20 9 39 19 20 21 28 12 45 -15 27 -19 26 -53 -6
-37 -35 -37 -80 -2 -122 31 -37 71 -41 119 -11 36 22 52 52 66 124 12 65 33
96 65 96 31 0 41 -25 19 -50 -13 -14 -14 -23 -5 -39 14 -27 22 -26 47 2 28 31
34 53 23 82 -27 71 -95 86 -154 35z"/>
<path d="M3926 5193 c-10 -10 3 -117 26 -208 87 -354 423 -691 766 -769 87
-20 234 -20 323 -2 307 65 580 317 654 601 29 115 20 117 -51 10 -169 -255
-325 -395 -517 -467 -164 -61 -400 -47 -565 34 -76 37 -180 135 -237 222 -66
102 -134 290 -135 372 l0 30 353 12 c193 7 592 23 886 37 387 18 545 22 572
15 43 -12 69 -42 69 -81 0 -32 -70 -132 -176 -254 l-79 -90 50 29 c133 76 285
200 326 264 63 99 22 171 -121 218 -51 17 -121 18 -1085 19 -566 0 -1035 3
-1041 7 -6 4 -14 4 -18 1z"/>
<path d="M1952 5093 c-23 -37 -40 -68 -39 -69 1 -1 75 -47 165 -102 l162 -101
16 25 c9 13 15 26 13 28 -2 1 -32 20 -66 41 -35 21 -63 40 -63 42 0 3 8 18 18
35 16 28 16 30 -3 44 -18 13 -22 13 -37 -6 -9 -11 -18 -26 -21 -33 -3 -9 -13
-7 -38 7 -75 40 -75 40 -45 87 26 39 27 41 9 55 -10 7 -21 14 -24 14 -4 0 -25
-30 -47 -67z"/>
<path d="M5888 4310 c-91 -118 -301 -212 -593 -265 -121 -22 -487 -31 -637
-16 -314 33 -604 132 -746 257 -29 25 -55 44 -58 42 -2 -3 -7 -27 -10 -54 -13
-109 37 -187 163 -252 410 -212 1332 -228 1728 -30 82 41 179 112 210 152 35
46 42 95 21 150 -26 68 -36 70 -78 16z"/>
<path d="M9660 3899 c-146 -35 -588 -128 -805 -169 -121 -22 -230 -43 -242
-45 l-23 -5 0 -1010 0 -1009 33 -5 c472 -76 754 -128 1025 -190 l103 -23 -3
116 -3 116 -180 32 c-99 17 -261 44 -360 58 -99 15 -186 29 -193 31 -10 3 -12
86 -10 391 l3 388 313 -4 312 -4 0 117 0 117 -97 -5 c-54 -3 -196 -8 -315 -11
l-218 -6 0 389 0 389 108 17 c120 20 585 103 620 111 21 5 22 9 22 120 0 63
-3 115 -7 114 -5 -1 -42 -9 -83 -20z"/>
<path d="M605 3860 c-99 -21 -156 -60 -179 -122 -15 -39 -16 -144 -14 -1073
l3 -1030 22 -36 c45 -72 179 -115 308 -99 33 4 146 24 250 44 105 19 258 47
341 60 206 35 301 70 392 143 76 62 82 85 82 299 l0 187 -97 -6 c-54 -4 -146
-9 -205 -13 l-108 -6 0 -199 c0 -198 0 -199 -22 -203 -23 -5 -438 -64 -515
-73 l-43 -6 0 952 c0 814 2 951 14 951 8 0 135 -20 282 -45 146 -25 271 -45
275 -45 5 0 9 -80 9 -179 l0 -179 43 -6 c23 -3 96 -10 162 -16 66 -5 139 -13
163 -16 l42 -5 0 166 c0 120 -4 175 -14 200 -28 67 -138 148 -258 191 -59 21
-762 163 -835 169 -32 2 -76 0 -98 -5z"/>
<path d="M8045 3594 c-178 -28 -656 -89 -840 -106 l-130 -13 -3 -833 c-2 -776
-1 -832 15 -832 80 0 701 -55 1091 -96 l63 -7 -3 89 -3 89 -75 7 c-93 8 -442
35 -572 44 l-98 7 0 313 0 314 299 0 c165 0 306 3 315 6 13 5 16 23 16 91 l0
85 -252 -6 c-139 -4 -281 -9 -315 -12 l-63 -6 -2 296 c-1 163 -2 304 -2 314
-1 14 14 19 94 28 52 6 222 26 378 45 l282 33 0 88 c0 104 23 96 -195 62z"/>
<path d="M2328 3535 c-26 -7 -63 -23 -83 -35 -69 -43 -66 4 -63 -854 l3 -774
25 -27 c68 -73 214 -104 405 -86 61 6 238 20 395 31 310 22 388 36 492 92 106
56 98 -3 98 753 0 743 6 690 -82 746 -106 68 -164 80 -658 134 -333 37 -455
41 -532 20z m591 -185 c118 -11 225 -20 238 -20 l23 0 0 -688 0 -688 -242 -13
c-134 -6 -264 -14 -290 -18 l-48 -6 0 733 0 732 53 -6 c28 -3 148 -15 266 -26z"/>
<path d="M6465 3424 c-152 -11 -348 -21 -772 -40 l-133 -6 0 -753 0 -752 53
-7 c28 -3 123 -6 210 -6 l157 0 0 310 0 310 223 0 c122 0 266 3 320 7 l97 6 0
71 0 71 -320 -3 -320 -4 0 310 0 311 53 5 c28 3 198 12 377 21 178 9 328 19
332 21 5 3 8 36 8 75 l0 69 -57 -1 c-32 -1 -134 -8 -228 -15z"/>
<path d="M4050 2632 c0 -424 3 -772 8 -774 4 -2 98 -2 210 0 l202 3 0 309 0
310 320 0 320 0 0 70 0 70 -243 0 c-134 0 -278 3 -320 6 l-77 7 0 303 0 304
385 0 385 0 0 69 0 68 -497 7 c-274 3 -542 9 -595 12 l-98 7 0 -771z"/>
<path d="M4308 1463 c-27 -7 -21 -37 12 -61 l30 -23 0 -429 c0 -419 -1 -430
-20 -442 -12 -8 -20 -24 -20 -40 l0 -28 135 0 135 0 0 29 c0 16 -7 34 -15 41
-12 10 -15 49 -15 230 l0 218 34 16 c43 20 80 20 100 0 14 -13 16 -49 16 -233
0 -205 -1 -219 -20 -236 -11 -10 -20 -29 -20 -42 l0 -24 138 3 c130 3 137 4
140 24 2 11 -6 28 -18 39 -19 17 -20 29 -20 249 0 163 -4 238 -13 255 -21 42
-60 63 -128 68 -60 5 -109 -6 -191 -42 -17 -7 -18 7 -18 214 l0 221 -112 -1
c-62 -1 -121 -3 -130 -6z"/>
<path d="M3897 1070 c-165 -42 -227 -171 -129 -268 21 -20 95 -68 166 -107
127 -69 161 -98 154 -131 -8 -41 -101 -76 -163 -60 -24 6 -26 10 -23 53 3 41
0 48 -22 60 -14 7 -47 13 -73 13 -41 0 -53 -5 -79 -30 -24 -24 -29 -36 -24
-58 8 -34 55 -75 104 -91 61 -19 175 -25 244 -11 125 24 189 77 195 162 7 92
-34 134 -227 232 -59 31 -111 61 -117 68 -22 29 -22 48 1 75 19 22 32 27 72
27 l49 1 0 -40 c0 -50 28 -67 102 -62 119 8 128 106 15 154 -44 19 -192 26
-245 13z"/>
<path d="M5223 1071 c-53 -14 -122 -60 -153 -102 -39 -55 -53 -126 -48 -245 5
-120 34 -186 100 -234 117 -85 315 -80 413 11 68 63 89 122 89 254 0 93 -3
118 -23 162 -26 59 -84 117 -140 140 -41 18 -190 26 -238 14z m136 -71 c38
-20 46 -66 46 -255 0 -156 -2 -185 -18 -208 -34 -53 -106 -44 -135 17 -17 34
-27 237 -18 329 11 102 63 151 125 117z"/>
<path d="M6014 1050 c-32 -16 -60 -30 -61 -30 -2 0 -3 11 -3 25 l0 25 -102 0
c-128 0 -148 -5 -148 -36 0 -14 6 -24 14 -24 8 0 22 -10 30 -22 14 -19 16 -69
16 -346 l0 -323 -25 -25 c-14 -14 -25 -36 -25 -49 l0 -25 145 0 145 0 0 23 c0
13 -9 32 -20 42 -17 15 -20 31 -20 106 l0 89 40 -21 c49 -26 145 -36 193 -20
47 16 89 65 118 138 20 50 23 76 24 188 0 115 -3 136 -23 180 -29 63 -57 93
-107 116 -60 28 -122 24 -191 -11z m69 -80 c37 -29 51 -108 44 -252 -4 -91
-10 -125 -24 -150 -26 -45 -63 -57 -108 -35 l-35 17 0 209 0 209 28 10 c42 16
67 14 95 -8z"/>
<path d="M2880 794 c-152 -23 -127 -56 57 -76 112 -11 314 1 354 22 62 34 -41
58 -241 58 -80 -1 -156 -2 -170 -4z"/>
<path d="M6658 786 c-32 -7 -60 -15 -64 -18 -37 -37 203 -68 382 -49 122 13
161 25 145 45 -28 34 -339 49 -463 22z"/>
</g>
</svg>
